HIERARCHY
ROOT mixamorig:Hips
{
	OFFSET 0.000000 201.639420 0.000000
	CHANNELS 6 Xposition Yposition Zposition Xrotation Yrotation Zrotation
	JOINT mixamorig:Spine
	{
		OFFSET 0.006200 19.524994 -2.481800
		CHANNELS 3 Xrotation Yrotation Zrotation
		JOINT mixamorig:Spine1
		{
			OFFSET -0.000900 22.835007 -2.825400
			CHANNELS 3 Xrotation Yrotation Zrotation
			JOINT mixamorig:Spine2
			{
				OFFSET -0.020600 26.552490 -3.193300
				CHANNELS 3 Xrotation Yrotation Zrotation
				JOINT mixamorig:Neck
				{
					OFFSET -0.060000 30.701813 1.352200
					CHANNELS 3 Xrotation Yrotation Zrotation
					JOINT mixamorig:Head
					{
						OFFSET -0.087200 22.547607 3.670900
						CHANNELS 3 Xrotation Yrotation Zrotation
						JOINT mixamorig:HeadTop_End
						{
							OFFSET -0.830600 40.355194 7.893500
							CHANNELS 3 Xrotation Yrotation Zrotation
							End Site
							{
								OFFSET 0.000000 30.592346 0.000000
							}
						}
						JOINT mixamorig:RightEye
						{
							OFFSET -6.302100 18.118591 16.197100
							CHANNELS 3 Xrotation Yrotation Zrotation
							End Site
							{
								OFFSET 0.000000 30.592346 0.000000
							}
						}
						JOINT mixamorig:LeftEye
						{
							OFFSET 6.741500 18.382690 16.401899
							CHANNELS 3 Xrotation Yrotation Zrotation
							End Site
							{
								OFFSET 0.000000 30.592346 0.000000
							}
						}
					}
				}
				JOINT mixamorig:LeftShoulder
				{
					OFFSET 11.924900 18.230499 1.425400
					CHANNELS 3 Xrotation Yrotation Zrotation
					JOINT mixamorig:LeftArm
					{
						OFFSET 25.435989 -0.697632 -5.229300
						CHANNELS 3 Xrotation Yrotation Zrotation
						JOINT mixamorig:LeftForeArm
						{
							OFFSET 54.684776 0.000000 0.000000
							CHANNELS 3 Xrotation Yrotation Zrotation
							JOINT mixamorig:LeftHand
							{
								OFFSET 55.098175 0.000000 0.000000
								CHANNELS 3 Xrotation Yrotation Zrotation
								JOINT mixamorig:LeftHandMiddle1
								{
									OFFSET 23.369751 0.000000 0.000000
									CHANNELS 3 Xrotation Yrotation Zrotation
									JOINT mixamorig:LeftHandMiddle2
									{
										OFFSET 6.378677 0.000000 0.000000
										CHANNELS 3 Xrotation Yrotation Zrotation
										JOINT mixamorig:LeftHandMiddle3
										{
											OFFSET 6.148331 0.000000 0.000000
											CHANNELS 3 Xrotation Yrotation Zrotation
											JOINT mixamorig:LeftHandMiddle4
											{
												OFFSET 6.582504 0.000000 0.000000
												CHANNELS 3 Xrotation Yrotation Zrotation
												End Site
												{
													OFFSET -1.168900 6.395691 1.028606
												}
											}
										}
									}
								}
								JOINT mixamorig:LeftHandThumb1
								{
									OFFSET 7.235672 -3.848206 5.434273
									CHANNELS 3 Xrotation Yrotation Zrotation
									JOINT mixamorig:LeftHandThumb2
									{
										OFFSET 6.568451 -3.792297 3.792300
										CHANNELS 3 Xrotation Yrotation Zrotation
										JOINT mixamorig:LeftHandThumb3
										{
											OFFSET 6.063080 -3.500519 3.500518
											CHANNELS 3 Xrotation Yrotation Zrotation
											JOINT mixamorig:LeftHandThumb4
											{
												OFFSET 4.793182 -2.767334 2.767349
												CHANNELS 3 Xrotation Yrotation Zrotation
												End Site
												{
													OFFSET 0.101639 6.054260 1.275483
												}
											}
										}
									}
								}
								JOINT mixamorig:LeftHandIndex1
								{
									OFFSET 23.101074 -0.309540 4.992809
									CHANNELS 3 Xrotation Yrotation Zrotation
									JOINT mixamorig:LeftHandIndex2
									{
										OFFSET 6.226883 0.000000 0.000000
										CHANNELS 3 Xrotation Yrotation Zrotation
										JOINT mixamorig:LeftHandIndex3
										{
											OFFSET 6.094330 0.000000 0.000000
											CHANNELS 3 Xrotation Yrotation Zrotation
											JOINT mixamorig:LeftHandIndex4
											{
												OFFSET 5.482605 0.000000 0.000000
												CHANNELS 3 Xrotation Yrotation Zrotation
												End Site
												{
													OFFSET -1.427902 5.233032 0.797164
												}
											}
										}
									}
								}
								JOINT mixamorig:LeftHandRing1
								{
									OFFSET 22.299240 0.021149 -3.964172
									CHANNELS 3 Xrotation Yrotation Zrotation
									JOINT mixamorig:LeftHandRing2
									{
										OFFSET 6.321869 0.000000 0.000000
										CHANNELS 3 Xrotation Yrotation Zrotation
										JOINT mixamorig:LeftHandRing3
										{
											OFFSET 5.899796 0.000000 0.000000
											CHANNELS 3 Xrotation Yrotation Zrotation
											JOINT mixamorig:LeftHandRing4
											{
												OFFSET 6.517899 0.000000 0.000000
												CHANNELS 3 Xrotation Yrotation Zrotation
												End Site
												{
													OFFSET -1.637299 6.232208 0.980890
												}
											}
										}
									}
								}
								JOINT mixamorig:LeftHandPinky1
								{
									OFFSET 20.463791 -0.302338 -8.562233
									CHANNELS 3 Xrotation Yrotation Zrotation
									JOINT mixamorig:LeftHandPinky2
									{
										OFFSET 6.908646 0.000000 0.000000
										CHANNELS 3 Xrotation Yrotation Zrotation
										JOINT mixamorig:LeftHandPinky3
										{
											OFFSET 4.622849 0.000000 0.000000
											CHANNELS 3 Xrotation Yrotation Zrotation
											JOINT mixamorig:LeftHandPinky4
											{
												OFFSET 5.216080 0.000000 0.000000
												CHANNELS 3 Xrotation Yrotation Zrotation
												End Site
												{
													OFFSET -0.606308 5.116241 0.814926
												}
											}
										}
									}
								}
							}
						}
					}
				}
				JOINT mixamorig:RightShoulder
				{
					OFFSET -12.001300 18.284088 1.348900
					CHANNELS 3 Xrotation Yrotation Zrotation
					JOINT mixamorig:RightArm
					{
						OFFSET -25.308500 -0.751312 -5.164599
						CHANNELS 3 Xrotation Yrotation Zrotation
						JOINT mixamorig:RightForeArm
						{
							OFFSET -54.684429 0.000000 0.000000
							CHANNELS 3 Xrotation Yrotation Zrotation
							JOINT mixamorig:RightHand
							{
								OFFSET -55.150291 0.000000 0.000000
								CHANNELS 3 Xrotation Yrotation Zrotation
								JOINT mixamorig:RightHandMiddle1
								{
									OFFSET -23.317566 0.000000 0.000000
									CHANNELS 3 Xrotation Yrotation Zrotation
									JOINT mixamorig:RightHandMiddle2
									{
										OFFSET -6.378403 0.000000 0.000000
										CHANNELS 3 Xrotation Yrotation Zrotation
										JOINT mixamorig:RightHandMiddle3
										{
											OFFSET -6.148193 0.000000 0.000000
											CHANNELS 3 Xrotation Yrotation Zrotation
											JOINT mixamorig:RightHandMiddle4
											{
												OFFSET -6.583389 0.000000 0.000000
												CHANNELS 3 Xrotation Yrotation Zrotation
												End Site
												{
													OFFSET 1.171692 6.395905 1.029786
												}
											}
										}
									}
								}
								JOINT mixamorig:RightHandThumb1
								{
									OFFSET -7.190521 -3.860474 5.435846
									CHANNELS 3 Xrotation Yrotation Zrotation
									JOINT mixamorig:RightHandThumb2
									{
										OFFSET -6.567429 -3.791718 3.791708
										CHANNELS 3 Xrotation Yrotation Zrotation
										JOINT mixamorig:RightHandThumb3
										{
											OFFSET -6.062469 -3.500153 3.500166
											CHANNELS 3 Xrotation Yrotation Zrotation
											JOINT mixamorig:RightHandThumb4
											{
												OFFSET -4.792618 -2.767029 2.767022
												CHANNELS 3 Xrotation Yrotation Zrotation
												End Site
												{
													OFFSET -0.100327 6.053253 1.276754
												}
											}
										}
									}
								}
								JOINT mixamorig:RightHandIndex1
								{
									OFFSET -23.048981 -0.310791 4.992554
									CHANNELS 3 Xrotation Yrotation Zrotation
									JOINT mixamorig:RightHandIndex2
									{
										OFFSET -6.227539 0.000000 0.000000
										CHANNELS 3 Xrotation Yrotation Zrotation
										JOINT mixamorig:RightHandIndex3
										{
											OFFSET -6.095047 0.000000 0.000000
											CHANNELS 3 Xrotation Yrotation Zrotation
											JOINT mixamorig:RightHandIndex4
											{
												OFFSET -5.484772 0.000000 0.000000
												CHANNELS 3 Xrotation Yrotation Zrotation
												End Site
												{
													OFFSET 1.420593 5.237305 0.797056
												}
											}
										}
									}
								}
								JOINT mixamorig:RightHandRing1
								{
									OFFSET -22.246323 0.020569 -3.963762
									CHANNELS 3 Xrotation Yrotation Zrotation
									JOINT mixamorig:RightHandRing2
									{
										OFFSET -6.322128 0.000000 0.000000
										CHANNELS 3 Xrotation Yrotation Zrotation
										JOINT mixamorig:RightHandRing3
										{
											OFFSET -5.900024 0.000000 0.000000
											CHANNELS 3 Xrotation Yrotation Zrotation
											JOINT mixamorig:RightHandRing4
											{
												OFFSET -6.518356 0.000000 0.000000
												CHANNELS 3 Xrotation Yrotation Zrotation
												End Site
												{
													OFFSET 1.636398 6.232697 0.982186
												}
											}
										}
									}
								}
								JOINT mixamorig:RightHandPinky1
								{
									OFFSET -20.411011 -0.303314 -8.561701
									CHANNELS 3 Xrotation Yrotation Zrotation
									JOINT mixamorig:RightHandPinky2
									{
										OFFSET -6.907349 0.000000 0.000000
										CHANNELS 3 Xrotation Yrotation Zrotation
										JOINT mixamorig:RightHandPinky3
										{
											OFFSET -4.623840 0.000000 0.000000
											CHANNELS 3 Xrotation Yrotation Zrotation
											JOINT mixamorig:RightHandPinky4
											{
												OFFSET -5.218353 0.000000 0.000000
												CHANNELS 3 Xrotation Yrotation Zrotation
												End Site
												{
													OFFSET 0.602097 5.118835 0.816273
												}
											}
										}
									}
								}
							}
						}
					}
				}
			}
		}
	}
	JOINT mixamorig:LeftUpLeg
	{
		OFFSET 18.168400 -13.561905 -0.039000
		CHANNELS 3 Xrotation Yrotation Zrotation
		JOINT mixamorig:LeftLeg
		{
			OFFSET 0.577358 -80.825211 -3.695000
			CHANNELS 3 Xrotation Yrotation Zrotation
			JOINT mixamorig:LeftFoot
			{
				OFFSET -0.577356 -83.370262 -6.520700
				CHANNELS 3 Xrotation Yrotation Zrotation
				JOINT mixamorig:LeftToeBase
				{
					OFFSET 0.750401 -20.798306 25.135401
					CHANNELS 3 Xrotation Yrotation Zrotation
					JOINT mixamorig:LeftToe_End
					{
						OFFSET -0.000500 0.001200 19.917799
						CHANNELS 3 Xrotation Yrotation Zrotation
						End Site
						{
							OFFSET 0.000000 19.917805 0.000000
						}
					}
				}
			}
		}
	}
	JOINT mixamorig:RightUpLeg
	{
		OFFSET -18.162500 -13.585098 -0.041000
		CHANNELS 3 Xrotation Yrotation Zrotation
		JOINT mixamorig:RightLeg
		{
			OFFSET -0.595024 -80.945297 -3.631900
			CHANNELS 3 Xrotation Yrotation Zrotation
			JOINT mixamorig:RightFoot
			{
				OFFSET 0.595024 -83.218193 -6.561200
				CHANNELS 3 Xrotation Yrotation Zrotation
				JOINT mixamorig:RightToeBase
				{
					OFFSET -0.753601 -20.807106 25.115000
					CHANNELS 3 Xrotation Yrotation Zrotation
					JOINT mixamorig:RightToe_End
					{
						OFFSET 0.000299 0.001700 19.918200
						CHANNELS 3 Xrotation Yrotation Zrotation
						End Site
						{
							OFFSET 0.000000 19.918203 0.000000
						}
					}
				}
			}
		}
	}
}
MOTION
Frames: 4
Frame Time: 0.033333
-11.870841 186.673630 -16.073685 7.175034 -239.099924 -2.089818 4.479879 0.944467 -0.867737 8.968559 1.838795 -1.527841 8.968559 1.838790 -1.527840 -3.895384 28.251595 -6.213793 -13.572875 24.688258 -5.029035 -0.000000 0.000000 0.000000 -0.000000 0.000000 0.000000 -0.000000 0.000000 0.000000 -17.979804 11.098889 -5.897205 -4.591806 -24.189482 -69.569295 -26.973431 -70.746396 -31.711134 -107.289650 -30.766543 15.824963 0.483578 -1.469640 -64.508330 -6.082517 -6.604472 -59.776088 -0.000003 -0.000004 -0.000002 -0.000000 0.000001 -0.000001 3.547247 6.586502 -5.786754 1.515867 4.247224 1.454817 0.000004 -0.000009 -0.000001 0.000002 0.000004 -0.000002 8.565377 6.596758 -34.845767 -14.987537 -6.712641 -80.925536 -0.000010 0.000004 0.000007 0.000002 -0.000000 -0.000001 -5.140135 4.659965 -75.298799 0.769293 -3.437605 -57.265744 -0.000007 0.000003 0.000004 -0.000003 -0.000001 0.000002 -16.175732 1.396946 -86.185349 2.614367 -7.610867 -56.068524 -0.000007 -0.000008 -0.000006 -0.000001 0.000001 -0.000000 14.459174 -0.284483 -2.547550 0.437228 42.341015 37.239076 -3.539206 115.740998 0.063262 -36.304709 -21.281869 3.612817 3.293127 6.067402 50.559181 -9.401040 -0.925428 110.820181 0.000010 -0.000003 0.000002 0.000004 0.000001 0.000002 15.727622 -5.031573 17.088650 11.455239 4.179198 -20.423167 0.000009 -0.000007 0.000000 -0.000001 0.000001 -0.000001 1.890596 -1.115558 4.749924 -1.708453 -0.108336 21.766148 -0.000002 -0.000002 -0.000001 -0.000000 0.000001 -0.000004 -8.799129 -5.495241 55.000402 -4.724271 8.867594 96.900891 0.000003 0.000002 0.000006 -0.000002 0.000000 0.000003 -12.715318 0.209907 70.014958 -3.467170 14.068504 79.568343 -0.000003 -0.000001 -0.000001 0.000002 -0.000003 0.000002 -34.335057 41.988390 24.598477 45.898335 3.488990 -1.451531 -15.714194 17.757319 0.404194 -0.579435 -0.025658 0.064041 0.000000 0.000001 0.000000 -18.749477 15.763445 -17.185258 43.768071 2.302397 1.703764 -13.067994 -4.617196 12.468352 -4.845019 -0.250471 3.263930 0.000000 0.000001 0.000000 
-9.532043 188.223709 -13.649973 5.946975 -237.624740 -1.625294 4.246490 0.962025 -0.681284 8.502334 1.878675 -1.290689 8.502330 1.878692 -1.290689 -4.017056 28.075561 -5.724681 -14.768228 23.826637 -3.480660 0.000000 0.000000 0.000000 0.000000 0.000000 0.000000 0.000000 0.000000 0.000000 -18.259512 10.521955 -5.205954 -5.449481 -25.914909 -69.762138 -22.369457 -68.101180 -26.912923 -109.427349 -29.940780 14.799533 -0.124439 -1.574934 -64.491917 -6.095204 -6.601995 -59.844034 -0.000002 -0.000006 -0.000001 -0.000001 0.000000 0.000000 3.646188 5.500179 -5.367739 1.454280 4.260276 1.557479 0.000007 -0.000008 0.000000 -0.000001 0.000001 0.000001 8.282263 6.260898 -34.647917 -15.014296 -6.691599 -81.035598 -0.000007 0.000004 0.000008 0.000001 -0.000001 0.000000 -5.132760 4.657532 -74.988080 0.767453 -3.451924 -57.439808 -0.000006 0.000004 0.000003 -0.000001 0.000000 0.000001 -16.177293 1.397554 -86.184604 2.613825 -7.607497 -56.039622 -0.000005 -0.000007 -0.000006 -0.000002 0.000000 -0.000001 14.566162 -0.026372 -2.032740 -0.153648 41.777638 39.176657 -3.526301 115.208011 0.044310 -35.906253 -22.290823 3.388496 3.282992 6.071457 50.664646 -9.400061 -0.923842 110.803461 0.000010 -0.000003 0.000003 0.000001 0.000000 -0.000000 15.730450 -5.036856 17.097990 11.541051 4.031613 -20.412346 0.000007 -0.000006 0.000001 0.000000 -0.000001 0.000000 1.901099 -1.148686 4.717175 -1.713062 -0.107364 21.803968 -0.000002 0.000001 -0.000005 0.000002 0.000003 -0.000003 -8.764317 -5.554113 55.082993 -4.713685 8.863910 96.799422 -0.000001 -0.000000 0.000006 0.000000 0.000001 -0.000001 -12.681138 0.155943 70.057339 -3.467142 14.068399 79.568111 0.000005 -0.000000 -0.000000 0.000001 0.000001 -0.000002 -34.331628 41.048395 25.127470 43.314802 3.752430 -1.353467 -13.266853 16.530236 -0.446880 -0.521310 -0.025725 0.063897 -0.000000 0.000000 0.000000 -14.476332 14.106740 -16.526411 36.022233 0.375054 1.341238 -15.532332 -6.287745 15.335697 -2.056949 -0.172518 0.437321 -0.000000 0.000005 0.000000 
-7.305751 189.803177 -11.052375 5.670773 -235.015417 -1.681511 4.111701 0.809491 -0.571306 8.230744 1.576797 -1.118478 8.230742 1.576796 -1.118476 -3.765462 27.872399 -5.483519 -15.526999 22.771427 -2.149158 0.000000 0.000000 0.000000 0.000000 0.000000 0.000000 0.000000 0.000000 0.000000 -18.414062 9.778820 -5.092369 -6.554651 -25.636446 -70.891940 -19.888795 -66.316458 -24.317184 -109.065424 -28.745363 14.469928 -0.465501 -1.628241 -64.294381 -6.110562 -6.598972 -59.926345 0.000003 -0.000002 -0.000002 0.000002 0.000000 0.000000 3.703615 4.709458 -5.096221 1.405837 4.270460 1.637804 0.000005 -0.000005 -0.000001 -0.000001 0.000001 -0.000002 8.026029 5.953653 -34.468468 -15.006942 -6.697470 -81.005545 -0.000008 0.000005 0.000007 -0.000004 -0.000000 0.000000 -5.152316 4.653163 -74.738676 0.766013 -3.462715 -57.571248 -0.000007 0.000003 0.000005 -0.000003 -0.000001 -0.000000 -16.181288 1.399077 -86.182692 2.613095 -7.603209 -56.002452 -0.000004 -0.000009 -0.000006 -0.000001 -0.000001 0.000001 14.688441 0.131421 -1.452982 -0.570502 40.943747 40.330645 -3.521475 114.809947 0.034945 -35.246454 -22.629503 3.739009 3.320910 6.038318 50.498488 -9.399530 -0.922948 110.794056 0.000011 -0.000002 0.000002 0.000001 0.000000 -0.000002 15.717351 -5.036001 17.151913 11.575311 3.972654 -20.407946 0.000010 -0.000009 0.000002 -0.000003 -0.000001 0.000000 1.900440 -1.144853 4.716495 -1.724845 -0.105066 21.900264 -0.000001 -0.000001 -0.000002 -0.000000 -0.000000 -0.000003 -8.740525 -5.589773 55.097814 -4.709666 8.862478 96.760483 0.000004 0.000001 0.000008 -0.000003 -0.000004 0.000004 -12.661656 0.129070 70.070303 -3.463296 14.062796 79.523380 0.000000 -0.000003 0.000004 -0.000003 0.000004 -0.000001 -33.472360 40.394312 25.085499 40.160177 3.950939 -1.238780 -10.554919 14.291546 -0.964702 -0.450385 -0.025789 0.063714 0.000000 -0.000000 -0.000000 -13.245654 11.792798 -15.330705 34.403147 0.210797 1.263996 -15.177667 -7.355728 13.930535 -0.861399 -0.180884 0.442810 -0.000000 0.000002 -0.000000 
-5.266648 191.175797 -9.012021 5.811011 -231.649909 -1.759493 3.983987 0.551972 -0.491806 7.972621 1.065508 -0.989578 7.972629 1.065520 -0.989581 -3.145044 27.627413 -5.348067 -15.364389 21.486018 -1.162578 0.000000 -0.000000 -0.000000 0.000000 -0.000000 -0.000000 0.000000 -0.000000 -0.000000 -18.534067 8.952073 -5.164527 -7.105527 -23.931620 -72.469721 -19.050789 -65.626643 -23.402605 -106.960469 -27.556671 14.763034 -0.527378 -1.628656 -63.934013 -6.131277 -6.594868 -60.037479 -0.000000 -0.000003 0.000000 -0.000001 0.000001 -0.000001 3.719712 4.199456 -4.953777 1.363662 4.279370 1.707312 0.000004 -0.000003 0.000001 0.000002 0.000000 -0.000002 7.830831 5.739219 -34.246869 -14.989168 -6.711480 -80.932865 -0.000007 0.000003 0.000008 0.000005 0.000000 0.000000 -5.177300 4.648487 -74.521974 0.764804 -3.472019 -57.684369 -0.000003 0.000002 0.000003 -0.000001 -0.000000 -0.000001 -16.192703 1.403461 -86.177269 2.612335 -7.598659 -55.963292 -0.000006 -0.000005 -0.000003 -0.000001 -0.000001 -0.000002 14.774246 0.157782 -1.037487 -0.306474 40.094406 40.722185 -3.519885 114.651487 0.028684 -34.703802 -22.330832 4.227531 3.404236 5.966522 50.108860 -9.399448 -0.922773 110.792273 0.000011 -0.000001 0.000003 0.000001 -0.000001 -0.000000 15.682036 -5.009430 17.223498 11.565487 3.989544 -20.409235 0.000011 -0.000004 0.000002 -0.000001 -0.000001 0.000000 1.891204 -1.121107 4.766004 -1.739928 -0.102211 22.023132 0.000001 -0.000000 0.000002 0.000002 0.000002 -0.000005 -8.722686 -5.609488 55.042230 -4.711858 8.863252 96.781472 0.000003 0.000004 0.000009 -0.000001 0.000001 0.000005 -12.638527 0.112967 70.038980 -3.457186 14.053952 79.452558 -0.000001 0.000002 -0.000000 -0.000003 -0.000003 0.000003 -32.069340 40.085069 24.447839 36.958147 4.158686 -1.120069 -8.081931 11.288809 -1.144530 -0.376367 -0.025856 0.063537 0.000000 0.000001 -0.000000 -11.332448 9.357559 -14.617930 32.663679 0.332235 1.207888 -14.955018 -9.210872 12.649710 -0.412150 -0.183992 0.444928 -0.000000 0.000002 -0.000000 
